# xmcd CD Database Entry
#
# Track frame offsets:
# 183
# 15473
# 20873
# 28483
# 37495
# 55703
# 66645
# 78673
# 91243
# 100405
# 106478
# 117265
# 128048
# 147350
# 164583
# 171375
# 179465
# 192303
# 199225
# 202508
# 211793
# 220663
# 227668
# 234978
# 240000
# 246058
# 249075
# 254440
# 271100
# 277603
# 287870
# 300178
# 305513
# 311235
# 320683
#
# Disc length: 4356 seconds
#
# Revision: 1
# Processed by: cddbd v1.4PL0 Copyright (c) Steve Scherf et al.
# Submitted via: tcd 2.0b
#
DISCID=f7110223
DTITLE=Ismeretlen - Ismeretlen
DYEAR=1900
DGENRE=
TTITLE0=1. sáv
TTITLE1=2. sáv
TTITLE2=3. sáv
TTITLE3=4. sáv
TTITLE4=5. sáv
TTITLE5=6. sáv
TTITLE6=7. sáv
TTITLE7=8. sáv
TTITLE8=9. sáv
TTITLE9=10. sáv
TTITLE10=11. sáv
TTITLE11=12. sáv
TTITLE12=13. sáv
TTITLE13=14. sáv
TTITLE14=15. sáv
TTITLE15=16. sáv
TTITLE16=17. sáv
TTITLE17=18. sáv
TTITLE18=19. sáv
TTITLE19=20. sáv
TTITLE20=21. sáv
TTITLE21=22. sáv
TTITLE22=23. sáv
TTITLE23=24. sáv
TTITLE24=25. sáv
TTITLE25=26. sáv
TTITLE26=27. sáv
TTITLE27=28. sáv
TTITLE28=29. sáv
TTITLE29=30. sáv
TTITLE30=31. sáv
TTITLE31=32. sáv
TTITLE32=33. sáv
TTITLE33=34. sáv
TTITLE34=35. sáv
EXTD=
EXTT0=
EXTT1=
EXTT2=
EXTT3=
EXTT4=
EXTT5=
EXTT6=
EXTT7=
EXTT8=
EXTT9=
EXTT10=
EXTT11=
EXTT12=
EXTT13=
EXTT14=
EXTT15=
EXTT16=
EXTT17=
EXTT18=
EXTT19=
EXTT20=
EXTT21=
EXTT22=
EXTT23=
EXTT24=
EXTT25=
EXTT26=
EXTT27=
EXTT28=
EXTT29=
EXTT30=
EXTT31=
EXTT32=
EXTT33=
EXTT34=
PLAYORDER=
